<svg version="1.2" xmlns="http://www.w3.org/2000/svg" viewBox="0 0 99 99" width="99" height="99"><style>.a{fill:#fea116}.b{fill:#fff}</style><path class="a" d="m0 16c0-8.8 7.2-16 16-16h67c8.8 0 16 7.2 16 16v67c0 8.8-7.2 16-16 16h-67c-8.8 0-16-7.2-16-16z"/><path class="b" d="m50 41c0-9.9-4.5-18-10.1-18-5.6 0-10.2 8.1-10.2 18 0 4.3 2.8 8 6.6 9.4l-0.9 22.1c0 2.5 2 4.5 4.5 4.5 2.5 0 4.5-2 4.5-4.5l-0.9-22.1c3.8-1.4 6.5-5.1 6.5-9.4z"/><path class="b" d="m70.3 39.3l-0.6-16.3h-2.8l-0.6 16.3h-2.2l-0.6-16.3h-3.4l-0.5 16.3h-2.3l-0.5-16.3h-2.9l-0.5 16.3c0 3.4 2 6.4 5 7.7l-1.1 25.5c0 2.5 2 4.5 4.5 4.5 2.5 0 4.5-2 4.5-4.5l-1.1-25.5c3-1.3 5.1-4.3 5.1-7.7z"/></svg>